<svg width="1600" height="1000" viewBox="0 0 1600 1000" fill="none" xmlns="http://www.w3.org/2000/svg">
  <defs>
    <linearGradient id="bg" x1="120" y1="80" x2="1480" y2="920" gradientUnits="userSpaceOnUse">
      <stop stop-color="#0B3A3E"/>
      <stop offset="1" stop-color="#115E59"/>
    </linearGradient>
  </defs>
  <rect width="1600" height="1000" rx="42" fill="url(#bg)"/>
  <circle cx="1390" cy="130" r="160" fill="#5EEAD4" fill-opacity="0.2"/>
  <rect x="140" y="130" width="1320" height="740" rx="32" fill="#042F2E" stroke="#5EEAD4" stroke-opacity="0.4" stroke-width="2"/>
  <rect x="190" y="190" width="700" height="42" rx="12" fill="#99F6E4" fill-opacity="0.35"/>
  <rect x="190" y="266" width="860" height="120" rx="20" fill="#0F766E"/>
  <rect x="220" y="298" width="170" height="16" rx="8" fill="#CCFBF1"/>
  <rect x="220" y="330" width="290" height="12" rx="6" fill="#A7F3D0" fill-opacity="0.8"/>
  <rect x="560" y="298" width="170" height="16" rx="8" fill="#CCFBF1"/>
  <rect x="560" y="330" width="290" height="12" rx="6" fill="#A7F3D0" fill-opacity="0.8"/>
  <rect x="900" y="298" width="120" height="44" rx="10" fill="#14B8A6"/>
  <rect x="190" y="424" width="1220" height="386" rx="22" fill="#083B3A" stroke="#2DD4BF" stroke-opacity="0.5"/>
  <rect x="230" y="468" width="1140" height="46" rx="10" fill="#115E59"/>
  <rect x="252" y="484" width="230" height="14" rx="7" fill="#CCFBF1"/>
  <rect x="610" y="484" width="170" height="14" rx="7" fill="#A7F3D0"/>
  <rect x="870" y="484" width="210" height="14" rx="7" fill="#A7F3D0"/>
  <rect x="1130" y="478" width="180" height="26" rx="13" fill="#14B8A6"/>
  <rect x="230" y="534" width="1140" height="46" rx="10" fill="#0F4D4A"/>
  <rect x="252" y="550" width="360" height="14" rx="7" fill="#CCFBF1"/>
  <rect x="230" y="600" width="1140" height="46" rx="10" fill="#0F4D4A"/>
  <rect x="252" y="616" width="280" height="14" rx="7" fill="#CCFBF1"/>
  <rect x="230" y="666" width="1140" height="46" rx="10" fill="#0F4D4A"/>
  <rect x="252" y="682" width="420" height="14" rx="7" fill="#CCFBF1"/>
  <text x="190" y="108" fill="#E6FFFA" font-size="40" font-family="Segoe UI, Arial, sans-serif" font-weight="700">CSIR Management Portal Preview</text>
</svg>
