<svg width="1600" height="1000" viewBox="0 0 1600 1000" fill="none" xmlns="http://www.w3.org/2000/svg">
  <defs>
    <linearGradient id="bg" x1="120" y1="100" x2="1490" y2="920" gradientUnits="userSpaceOnUse">
      <stop stop-color="#3F1D0E"/>
      <stop offset="1" stop-color="#9A3412"/>
    </linearGradient>
  </defs>
  <rect width="1600" height="1000" rx="42" fill="url(#bg)"/>
  <circle cx="300" cy="140" r="160" fill="#FDBA74" fill-opacity="0.28"/>
  <circle cx="1310" cy="860" r="190" fill="#FDBA74" fill-opacity="0.2"/>
  <rect x="150" y="140" width="1300" height="720" rx="30" fill="#7C2D12" stroke="#FDBA74" stroke-opacity="0.45" stroke-width="2"/>
  <rect x="198" y="190" width="1240" height="54" rx="14" fill="#9A3412"/>
  <rect x="228" y="208" width="460" height="18" rx="9" fill="#FFEDD5" fill-opacity="0.92"/>
  <rect x="198" y="276" width="680" height="534" rx="20" fill="#431407" stroke="#FDBA74" stroke-opacity="0.4"/>
  <path d="M260 450 L370 370 L500 520 L650 360 L790 470" stroke="#FDBA74" stroke-width="18" stroke-linecap="round" stroke-linejoin="round"/>
  <circle cx="790" cy="470" r="22" fill="#FB923C"/>
  <path d="M300 330 C390 300 480 305 560 350" stroke="#FDBA74" stroke-opacity="0.7" stroke-width="10" stroke-linecap="round"/>
  <path d="M280 560 C370 520 500 525 620 590" stroke="#FDBA74" stroke-opacity="0.7" stroke-width="10" stroke-linecap="round"/>
  <rect x="908" y="276" width="530" height="250" rx="20" fill="#431407" stroke="#FDBA74" stroke-opacity="0.45"/>
  <rect x="940" y="312" width="220" height="16" rx="8" fill="#FFEDD5"/>
  <rect x="940" y="344" width="420" height="12" rx="6" fill="#FDBA74" fill-opacity="0.86"/>
  <rect x="940" y="372" width="380" height="12" rx="6" fill="#FDBA74" fill-opacity="0.7"/>
  <rect x="940" y="408" width="140" height="34" rx="17" fill="#EA580C"/>
  <rect x="908" y="546" width="530" height="264" rx="20" fill="#431407" stroke="#FDBA74" stroke-opacity="0.45"/>
  <rect x="940" y="586" width="300" height="18" rx="9" fill="#FFEDD5"/>
  <rect x="940" y="622" width="440" height="12" rx="6" fill="#FDBA74" fill-opacity="0.84"/>
  <rect x="940" y="648" width="370" height="12" rx="6" fill="#FDBA74" fill-opacity="0.68"/>
  <rect x="940" y="684" width="180" height="34" rx="17" fill="#EA580C"/>
  <text x="198" y="110" fill="#FFF7ED" font-size="40" font-family="Segoe UI, Arial, sans-serif" font-weight="700">YelpCamp Product Preview</text>
</svg>
